# xmcd
#
# Track frame offsets: 
#        150
#        17613
#        35507
#        51917
#        70896
#        87013
#        105429
#        122522
#        139204
#        158020
#        180496
#
# Disc length: 2656 seconds
#
# Revision: 0
# Processed by: cddbd v1.5.2PL0 Copyright (c) Steve Scherf et al.
# Submitted via: ExactAudioCopy v0.99pb4
#
DISCID=840a5e0b
DTITLE=¸Þ¸ð¸® - The Peacock
DYEAR=2009
DGENRE=Ballad
TTITLE0=Dream in Love (You and I)
TTITLE1=°í¾çÀÌ ¸¶È£
TTITLE2=Luv
TTITLE3=²ÉÀÙ
TTITLE4=Paradise
TTITLE5=±×´ë ¹ß±æ ¸Ó¹«´Â °÷¿¡ (Featuring Bobby Kim)
TTITLE6=Love You
TTITLE7=ºÀ¼±È­
TTITLE8=Flower (Ver. Kor with åüí­ä¨ì£äÅÛ©)
TTITLE9=³Ê¸¦ (at the age of 17)
TTITLE10=Flower (Ver. Jap with åüí­ä¨ì£äÅÛ©)
EXTD=
EXTT0=
EXTT1=
EXTT2=
EXTT3=
EXTT4=
EXTT5=
EXTT6=
EXTT7=
EXTT8=
EXTT9=
EXTT10=
PLAYORDER=
